<?xml version="1.0" encoding="UTF-8" standalone="no"?>
<svg
   xmlns:dc="http://purl.org/dc/elements/1.1/"
   xmlns:cc="http://creativecommons.org/ns#"
   xmlns:rdf="http://www.w3.org/1999/02/22-rdf-syntax-ns#"
   xmlns:svg="http://www.w3.org/2000/svg"
   xmlns="http://www.w3.org/2000/svg"
   xmlns:sodipodi="http://sodipodi.sourceforge.net/DTD/sodipodi-0.dtd"
   xmlns:inkscape="http://www.inkscape.org/namespaces/inkscape"
   viewBox="0 0 612 612"
   version="1.1"
   id="svg859"
   sodipodi:docname="bootstrap-solid.svg"
   inkscape:version="1.0.1 (3bc2e813f5, 2020-09-07)">
  <metadata
     id="metadata865">
    <rdf:RDF>
      <cc:Work
         rdf:about="">
        <dc:format>image/svg+xml</dc:format>
        <dc:type
           rdf:resource="http://purl.org/dc/dcmitype/StillImage" />
      </cc:Work>
    </rdf:RDF>
  </metadata>
  <defs
     id="defs863">
    <inkscape:perspective
       sodipodi:type="inkscape:persp3d"
       inkscape:vp_x="15.820408 : 259.37143 : 1"
       inkscape:vp_y="0 : 1000 : 0"
       inkscape:vp_z="627.82041 : 259.37143 : 1"
       inkscape:persp3d-origin="321.82041 : 157.37143 : 1"
       id="perspective1428" />
  </defs>
  <sodipodi:namedview
     pagecolor="#ffffff"
     bordercolor="#666666"
     borderopacity="1"
     objecttolerance="10"
     gridtolerance="10"
     guidetolerance="10"
     inkscape:pageopacity="0"
     inkscape:pageshadow="2"
     inkscape:window-width="1920"
     inkscape:window-height="1137"
     id="namedview861"
     showgrid="false"
     inkscape:zoom="1.2009804"
     inkscape:cx="306"
     inkscape:cy="306"
     inkscape:window-x="-8"
     inkscape:window-y="-8"
     inkscape:window-maximized="1"
     inkscape:current-layer="g857"
     inkscape:document-rotation="0" />
  <g
     sodipodi:docname="twitter_bootstrap_logo.svg"
     inkscape:version="0.48.1 r9760"
     id="g857">
    <path
       fill="#563D7C"
       d="M612 510c0 56.1-45.9 102-102 102H102C45.9 612 0 566.1 0 510V102C0 45.9 45.9 0 102 0h408c56.1 0 102 45.9 102 102v408z"
       id="path853" />
    <g
       sodipodi:type="inkscape:box3d"
       id="g1430"
       style="fill:none;stroke:#fa0000;stroke-width:2.51339"
       inkscape:perspectiveID="#perspective1428"
       inkscape:corner0="0.63333333 : 0.28900001 : 0 : 1"
       inkscape:corner7="-0.094827586 : 0.037559113 : 0.25 : 1">
      <path
         sodipodi:type="inkscape:box3dside"
         id="path1442"
         style="fill:#e9e9ff;fill-rule:evenodd;stroke:none;stroke-linejoin:round"
         inkscape:box3dsidetype="11"
         d="M 259.53722,253.33653 413.16369,190.74796 V 408.41322 L 259.53722,386.84497 Z"
         points="413.16369,190.74796 413.16369,408.41322 259.53722,386.84497 259.53722,253.33653 " />
      <path
         sodipodi:type="inkscape:box3dside"
         id="path1432"
         style="fill:#353564;fill-rule:evenodd;stroke:none;stroke-linejoin:round"
         inkscape:box3dsidetype="6"
         d="m 203.16735,238.13877 v 153.9434 l 56.36987,-5.2372 V 253.33653 Z"
         points="203.16735,392.08217 259.53722,386.84497 259.53722,253.33653 203.16735,238.13877 " />
      <path
         sodipodi:type="inkscape:box3dside"
         id="path1440"
         style="fill:#afafde;fill-rule:evenodd;stroke:none;stroke-linejoin:round"
         inkscape:box3dsidetype="13"
         d="m 203.16735,392.08217 150.7102,31.73824 59.28614,-15.40719 -153.62647,-21.56825 z"
         points="353.87755,423.82041 413.16369,408.41322 259.53722,386.84497 203.16735,392.08217 " />
      <path
         sodipodi:type="inkscape:box3dside"
         id="path1434"
         style="fill:#4d4d9f;fill-rule:evenodd;stroke:none;stroke-linejoin:round"
         inkscape:box3dsidetype="5"
         d="m 203.16735,238.13877 150.7102,-92.10069 59.28614,44.70988 -153.62647,62.58857 z"
         points="353.87755,146.03808 413.16369,190.74796 259.53722,253.33653 203.16735,238.13877 " />
      <path
         sodipodi:type="inkscape:box3dside"
         id="path1438"
         style="fill:#d7d7ff;fill-rule:evenodd;stroke:none;stroke-linejoin:round"
         inkscape:box3dsidetype="14"
         d="m 353.87755,146.03808 v 277.78233 l 59.28614,-15.40719 V 190.74796 Z"
         points="353.87755,423.82041 413.16369,408.41322 413.16369,190.74796 353.87755,146.03808 " />
      <path
         sodipodi:type="inkscape:box3dside"
         id="path1436"
         style="fill:#8686bf;fill-rule:evenodd;stroke:none;stroke-linejoin:round"
         inkscape:box3dsidetype="3"
         d="m 203.16735,238.13877 150.7102,-92.10069 v 277.78233 l -150.7102,-31.73824 z"
         points="353.87755,146.03808 353.87755,423.82041 203.16735,392.08217 203.16735,238.13877 " />
    </g>
  </g>
</svg>
